<?xml version="1.0" standalone="no"?>
<!DOCTYPE svg PUBLIC "-//W3C//DTD SVG 20010904//EN"
 "http://www.w3.org/TR/2001/REC-SVG-20010904/DTD/svg10.dtd">
<svg version="1.0" xmlns="http://www.w3.org/2000/svg"
 width="500.000000pt" height="500.000000pt" viewBox="0 0 500.000000 500.000000"
 preserveAspectRatio="xMidYMid meet">

<g transform="translate(0.000000,500.000000) scale(0.100000,-0.100000)"
fill="#fff" stroke="none">
<path d="M2310 3895 c-5 -14 -10 -64 -10 -111 0 -165 -64 -677 -121 -974 -38
-198 -79 -372 -90 -386 -5 -6 -55 -14 -112 -18 -152 -10 -554 -54 -700 -76
-193 -30 -271 -75 -298 -173 -17 -62 -6 -140 33 -244 51 -136 120 -244 218
-344 70 -71 96 -90 145 -108 86 -32 197 -27 278 13 176 86 331 348 462 781 20
66 41 123 48 127 7 4 45 8 85 8 l73 0 -3 -434 c-2 -239 -6 -437 -9 -440 -3 -4
-82 -20 -175 -36 -312 -54 -479 -103 -479 -141 0 -24 32 -22 102 7 73 29 413
101 503 106 l55 3 5 -285 5 -285 22 -3 c38 -6 43 31 43 318 0 154 4 271 9 275
13 7 183 31 365 50 120 12 151 13 158 3 4 -7 8 -194 8 -415 0 -377 1 -403 18
-412 46 -25 47 -18 50 423 l3 414 37 6 c20 3 101 8 180 12 l142 7 0 -36 c0
-25 6 -39 18 -46 39 -21 42 -1 42 323 0 171 4 317 9 325 7 11 61 3 302 -47
381 -80 539 -106 552 -93 16 16 -9 22 -437 112 -239 50 -404 89 -413 98 -26
25 4 121 38 121 12 0 327 179 419 238 331 213 473 406 458 622 -12 164 -144
283 -387 347 -120 32 -309 36 -436 8 -253 -54 -505 -206 -686 -413 -81 -92
-139 -222 -115 -260 12 -20 56 -15 56 7 0 39 81 179 152 261 318 369 801 491
1171 297 110 -58 167 -151 167 -271 -1 -157 -110 -318 -326 -479 -134 -100
-500 -314 -513 -301 -4 3 -8 148 -11 322 l-5 317 -26 3 c-23 3 -27 -1 -32 -35
-4 -21 -7 -177 -7 -347 l0 -309 -41 -38 c-50 -46 -50 -74 2 -107 l36 -24 8
-273 c4 -151 4 -278 0 -284 -4 -7 -68 -11 -181 -11 l-174 0 -1 313 c-1 171 -4
393 -8 492 l-6 180 -25 0 -25 0 -5 -492 c-3 -270 -7 -493 -10 -495 -7 -6 -521
-61 -525 -56 -3 2 -6 198 -7 436 l-3 432 42 0 c47 0 45 4 83 -150 30 -123 67
-235 102 -312 28 -62 34 -68 61 -68 34 0 35 -8 -17 125 -43 112 -120 391 -111
405 3 5 33 10 66 10 44 0 60 3 57 13 -3 7 -29 13 -71 15 l-66 3 -10 37 c-75
280 -141 860 -154 1352 -2 80 -3 85 -24 88 -17 3 -26 -3 -33 -23z m41 -797
c18 -159 67 -470 93 -595 l13 -63 -31 -4 c-76 -12 -245 -16 -251 -7 -3 6 10
81 29 168 34 151 81 413 107 591 6 46 14 81 16 78 3 -2 13 -78 24 -168z m-280
-748 c-10 -77 -119 -370 -186 -505 -84 -168 -152 -260 -235 -317 -109 -74
-191 -74 -299 0 -147 100 -311 398 -311 565 0 83 24 122 101 160 62 31 243 59
624 96 116 11 224 22 240 25 59 7 70 3 66 -24z"/>
</g>
</svg>
